<?xml version="1.0" encoding="UTF-8"?>
<svg id="Ebene_1" data-name="Ebene 1" xmlns="http://www.w3.org/2000/svg" viewBox="0 0 346.38 346.39">
  <defs>
    <style>
      .cls-1 {
        fill: #fff;
      }

      .cls-1, .cls-2 {
        stroke: #e30613;
        stroke-miterlimit: 10;
        stroke-width: 12px;
      }

      .cls-2 {
        fill: #e30613;
      }
    </style>
  </defs>
  <g>
    <circle class="cls-1" cx="173.19" cy="173.19" r="157.69"/>
    <path class="cls-2" d="M173.19,340.39c-92.19,0-167.19-75-167.19-167.19S81,6,173.19,6s167.19,75,167.19,167.19-75,167.19-167.19,167.19ZM173.19,25C91.48,25,25,91.48,25,173.19s66.48,148.19,148.19,148.19,148.19-66.48,148.19-148.19S254.91,25,173.19,25Z"/>
  </g>
  <path class="cls-2" d="M152.01,272.25c0-12.56,8.73-21.64,20.59-21.64,12.56,0,20.59,9.07,20.59,21.64s-8.03,21.64-20.59,21.64-20.59-9.42-20.59-21.64ZM160.74,222.34l-4.89-167.52h33.5l-4.89,167.52h-23.73Z"/>
</svg>